<svg xmlns="http://www.w3.org/2000/svg" viewBox="0 0 16 13" style="enable-background:new 0 0 16 13" xml:space="preserve" class="icon-wrapper__icon">
    <g fill="currentColor">
        <path d="M8.5 13c-.1 0-.2 0-.3-.1L2.3 9H.5C.2 9 0 8.8 0 8.5v-4c0-.3.2-.5.5-.5h1.8L8.2.1c.2-.1.4-.1.5 0 .2 0 .3.2.3.4v12c0 .2-.1.4-.3.4 0 .1-.1.1-.2.1zM1 8h1.5c.1 0 .2 0 .3.1L8 11.6V1.4L2.8 4.9c-.1.1-.2.1-.3.1H1v3z"></path>
        <g class="sound-wave">
            <path d="M12.3 9.8c-.1 0-.3 0-.4-.1-.2-.2-.2-.5 0-.7.7-.7 1-1.5 1-2.5 0-.9-.4-1.8-1-2.5-.2-.2-.2-.5 0-.7s.5-.2.7 0c.8.8 1.3 2 1.3 3.2 0 1.2-.5 2.3-1.3 3.2 0 .1-.1.1-.3.1z"></path>
            <path d="M10.9 8.4c-.1 0-.3 0-.4-.1-.2-.2-.2-.5 0-.7.6-.6.6-1.5 0-2.1-.2-.2-.2-.5 0-.7.2-.2.5-.2.7 0 1 1 1 2.6 0 3.5 0 .1-.2.1-.3.1zm2.8 2.8c-.1 0-.3 0-.4-.1-.2-.2-.2-.5 0-.7 1-1 1.6-2.4 1.6-3.9s-.6-2.9-1.6-3.9c-.2-.2-.2-.5 0-.7s.5-.2.7 0c1.3 1.2 2 2.9 2 4.6s-.7 3.4-1.9 4.6c-.1.1-.2.1-.4.1z"></path>
        </g>
        <path d="M2.5 9c-.3 0-.5-.2-.5-.5v-4c0-.3.2-.5.5-.5s.5.2.5.5v4c0 .3-.2.5-.5.5z"></path>
    </g>
</svg>
